<svg width="24" height="24" viewBox="0 0 24 24" fill="none" xmlns="http://www.w3.org/2000/svg">
<path d="M5.25 2C4.5625 2 4 2.5625 4 3.25V20.75C4 21.4375 4.5625 22 5.25 22H17.75C18.4375 22 19 21.4375 19 20.75V7L14 2H5.25Z" fill="#50BEE8"/>
<path d="M15.25 7H19L14 2V5.75C14 6.4375 14.5625 7 15.25 7Z" fill="#85CAF0"/>
<path d="M19 10.75L15.25 7H19V10.75Z" fill="#16A3CC"/>
<path d="M15.25 12.625H7.75C7.58424 12.625 7.42527 12.5592 7.30806 12.4419C7.19085 12.3247 7.125 12.1658 7.125 12C7.125 11.8342 7.19085 11.6753 7.30806 11.5581C7.42527 11.4408 7.58424 11.375 7.75 11.375H15.25C15.4158 11.375 15.5747 11.4408 15.6919 11.5581C15.8092 11.6753 15.875 11.8342 15.875 12C15.875 12.1658 15.8092 12.3247 15.6919 12.4419C15.5747 12.5592 15.4158 12.625 15.25 12.625ZM15.25 15.125H7.75C7.58424 15.125 7.42527 15.0592 7.30806 14.9419C7.19085 14.8247 7.125 14.6658 7.125 14.5C7.125 14.3342 7.19085 14.1753 7.30806 14.0581C7.42527 13.9408 7.58424 13.875 7.75 13.875H15.25C15.4158 13.875 15.5747 13.9408 15.6919 14.0581C15.8092 14.1753 15.875 14.3342 15.875 14.5C15.875 14.6658 15.8092 14.8247 15.6919 14.9419C15.5747 15.0592 15.4158 15.125 15.25 15.125ZM12.75 17.625H7.75C7.58424 17.625 7.42527 17.5592 7.30806 17.4419C7.19085 17.3247 7.125 17.1658 7.125 17C7.125 16.8342 7.19085 16.6753 7.30806 16.5581C7.42527 16.4408 7.58424 16.375 7.75 16.375H12.75C12.9158 16.375 13.0747 16.4408 13.1919 16.5581C13.3092 16.6753 13.375 16.8342 13.375 17C13.375 17.1658 13.3092 17.3247 13.1919 17.4419C13.0747 17.5592 12.9158 17.625 12.75 17.625Z" fill="white"/>
</svg>
