<svg xmlns="http://www.w3.org/2000/svg" viewBox="0 0 24 24" id="image">
  <g>
    <path fill="#ceeefb" d="m -171.75,-1115 c -1.6447,0 -3,1.3553 -3,3 v 14 c 0,1.6447 1.3553,3 3,3 h 14 c 1.6447,0 3,-1.3553 3,-3 v -14 c 0,-1.6447 -1.3553,-3 -3,-3 z" color="#000" font-family="sans-serif" font-weight="400" overflow="visible" style="line-height:normal;font-variant-ligatures:normal;font-variant-position:normal;font-variant-caps:normal;font-variant-numeric:normal;font-variant-alternates:normal;font-variant-east-asian:normal;font-feature-settings:normal;font-variation-settings:normal;text-indent:0;text-align:start;text-decoration-line:none;text-decoration-style:solid;text-decoration-color:#000;text-transform:none;text-orientation:mixed;shape-padding:0;shape-margin:0;inline-size:0;isolation:auto;mix-blend-mode:normal" transform="translate(176.75 1117)"></path>
    <path fill="#d2c898" d="m -168.54883,-1105 a 1.0001,1.0001 0 0 0 -0.67773,0.3125 L -174,-1099.6484 V -1099 c 0,1.6447 1.3553,3 3,3 h 13.29492 l -6.64062,-5.7559 a 1.0001,1.0001 0 0 0 -0.004,0 l -3.5,-3 a 1.0001,1.0001 0 0 0 -0.61523,-0.2402 1.0001,1.0001 0 0 0 -0.084,0 z" color="#000" font-family="sans-serif" font-weight="400" overflow="visible" style="line-height:normal;font-variant-ligatures:normal;font-variant-position:normal;font-variant-caps:normal;font-variant-numeric:normal;font-variant-alternates:normal;font-variant-east-asian:normal;font-feature-settings:normal;font-variation-settings:normal;text-indent:0;text-align:start;text-decoration-line:none;text-decoration-style:solid;text-decoration-color:#000;text-transform:none;text-orientation:mixed;shape-padding:0;shape-margin:0;inline-size:0;isolation:auto;mix-blend-mode:normal" transform="translate(176 1118)"></path>
    <path fill="#e1dbba" d="m -160,-1108 a 1.0001,1.0001 0 0 0 -0.78125,0.375 l -9.30078,11.625 H -157 c 1.6447,0 3,-1.3553 3,-3 v -4.5039 l -5.37695,-4.2793 A 1.0001,1.0001 0 0 0 -160,-1108 Z" color="#000" font-family="sans-serif" font-weight="400" overflow="visible" style="line-height:normal;font-variant-ligatures:normal;font-variant-position:normal;font-variant-caps:normal;font-variant-numeric:normal;font-variant-alternates:normal;font-variant-east-asian:normal;font-feature-settings:normal;font-variation-settings:normal;text-indent:0;text-align:start;text-decoration-line:none;text-decoration-style:solid;text-decoration-color:#000;text-transform:none;text-orientation:mixed;shape-padding:0;shape-margin:0;inline-size:0;isolation:auto;mix-blend-mode:normal" transform="translate(176 1118)"></path>
    <path fill="#f1c506" d="M 10,7 C 8.9033267,7 8,7.9033334 8,9.0000001 8,10.096667 8.9033267,11 10,11 11.096673,11 12,10.096667 12,9.0000001 12,7.9033334 11.096673,7 10,7 Z" color="#000" font-family="sans-serif" font-weight="400" overflow="visible" style="line-height:normal;font-variant-ligatures:normal;font-variant-position:normal;font-variant-caps:normal;font-variant-numeric:normal;font-variant-alternates:normal;font-variant-east-asian:normal;font-feature-settings:normal;font-variation-settings:normal;text-indent:0;text-align:start;text-decoration-line:none;text-decoration-style:solid;text-decoration-color:#000;text-transform:none;text-orientation:mixed;shape-padding:0;shape-margin:0;inline-size:0;isolation:auto;mix-blend-mode:normal"></path>
  </g>
</svg>
